<svg xmlns="http://www.w3.org/2000/svg" width="42" height="42" fill="currentColor">
    <path d="M32.813 37.75H9.188a2.315 2.315 0 0 1-2.313-2.312V6.563A2.315 2.315 0 0 1 9.188 4.25h15.75a1 1 0 0 1 .707.293l9.188 9.187a1 1 0 0 1 .293.707v21a2.315 2.315 0 0 1-2.313 2.313zM9.188 6.25a.313.313 0 0 0-.312.313v28.875a.313.313 0 0 0 .313.313h23.624a.313.313 0 0 0 .313-.312V14.85l-8.6-8.6z"/>
    <path d="M34.125 15.438h-9.188a1 1 0 0 1-1-1V5.25a1 1 0 0 1 2 0v8.188h8.188a1 1 0 0 1 0 2zM24.938 25.938h-7.875a1 1 0 0 1-1-1 1 1 0 0 1 1-1h7.875a1 1 0 0 1 1 1 1 1 0 0 1-1 1z"/>
    <path d="M21 29.875a1 1 0 0 1-1-1V21a1 1 0 0 1 1-1 1 1 0 0 1 1 1v7.875a1 1 0 0 1-1 1z"/>
</svg>