<svg xmlns="http://www.w3.org/2000/svg" width="42" height="42" fill="currentColor">
    <path d="M40.688 23.313h-7.875a1 1 0 0 1-1-1 1 1 0 0 1 1-1h7.875a1 1 0 0 1 1 1 1 1 0 0 1-1 1z"/>
    <path d="M36.75 27.25a1 1 0 0 1-1-1v-7.875a1 1 0 0 1 1-1 1 1 0 0 1 1 1v7.875a1 1 0 0 1-1 1zM17.719 5.563a10.844 10.844 0 0 1 10.844 10.844 10.844 10.844 0 0 1-10.844 10.844A10.844 10.844 0 0 1 6.875 16.407 10.844 10.844 0 0 1 17.719 5.563zm0 19.688a8.844 8.844 0 1 0-8.844-8.844 8.854 8.854 0 0 0 8.844 8.844z"/>
    <path d="M31.796 33.813a1 1 0 0 1-.767-.357 17.375 17.375 0 0 0-26.621 0 1 1 0 0 1-1.532-1.286 19.375 19.375 0 0 1 29.685 0 1 1 0 0 1-.766 1.643z"/>
</svg>