<svg xmlns="http://www.w3.org/2000/svg" viewBox="0 0 136 40">
    <path d="M87,.578s-1.382,6.746-2.76,13.548l-.253,1.249C82.785,21.328,81.65,27.01,81.52,27.9c-.285,1.966-.781,4.9,3.2,6.438,4.27,1.653,8.811-1.282,8.811-1.282a5.044,5.044,0,0,1-.63,3.419C91.862,37.592,88.238,40,81.578,40c-8.3,0-12.462-6.184-12.2-10.076a79.642,79.642,0,0,1,1.3-8.254l.161-.81c.4-2.008.734-3.49.734-3.49L58.392,29.048,50.827,16.883,46.432,38.3H34.964L42.908.578l9.561.075L60.2,15.878,77.385.578ZM115.352,0A52.261,52.261,0,0,1,136,4.367l-1.533,7.279S118.725,4.523,107.4,10.5c-5.585,3.75-6.1,7.58-5.476,10.777.746,3.888,5.476,6.41,10.105,6.4,5.443,0,9.4-2.162,10.22-4.342-.711.007-1.355.01-1.887.01h-.9l-.47,0h-.166l1.294-5.667s3.527.187,7.143.177l.657,0c2.738-.027,5.408-.18,6.514-.626l-3.919,21.353H119.987l1.223-6.25c-9.342,5.4-22.538,3.835-28.833-3.256-5.434-5.84-4.488-14.7,1.587-21.13,4.593-4.86,11.85-7.581,19.612-7.92V.038c.34-.019.794-.034,1.344-.037ZM38.315.58,36.82,7.438H34.735l-.768,0H33.4l-9.411-.015h-.688l-.992,0H18.228l-2.07,8.953s12.411.486,14.837-.734c0,0-.935,4.522-1.668,5.744-.58.96-9.2,1.075-12.852,1.08h-.623c-.434,0-.745,0-.892,0h-.1L11.5,38.314H0s1.626-7.985,3.4-16.608l.232-1.128.465-2.262.232-1.128C6.1,8.564,7.763.58,7.828.58H28.37l2.184,0h7.763Z"
          fill="#fff" fill-rule="evenodd"/>
</svg>