<svg xmlns="http://www.w3.org/2000/svg" width="30" height="30" fill="currentColor">
    <path d="M23.438 27.25H6.563a1.94 1.94 0 0 1-1.938-1.937V4.688A1.94 1.94 0 0 1 6.563 2.75h11.25a1 1 0 0 1 .707.293l6.562 6.562a1 1 0 0 1 .293.707v15a1.94 1.94 0 0 1-1.937 1.938zm-16.813-2h16.75V10.727L17.398 4.75H6.625z"/>
    <path d="M24.375 11.313h-6.563a1 1 0 0 1-1-1V3.75a1 1 0 0 1 2 0v5.563h5.563a1 1 0 0 1 0 2zM18.75 16.938h-7.5a1 1 0 0 1-1-1 1 1 0 0 1 1-1h7.5a1 1 0 0 1 1 1 1 1 0 0 1-1 1zM18.75 20.688h-7.5a1 1 0 0 1-1-1 1 1 0 0 1 1-1h7.5a1 1 0 0 1 1 1 1 1 0 0 1-1 1z"/>
</svg>