<svg xmlns="http://www.w3.org/2000/svg" width="18" height="18" fill="currentColor">
    <path
        d="M3.813 2.313h10.375a1.5 1.5 0 0 1 1.5 1.5v10.375a1.5 1.5 0 0 1-1.5 1.5H3.813a1.5 1.5 0 0 1-1.5-1.5V3.813a1.5 1.5 0 0 1 1.5-1.5zm10.375 12.375a.5.5 0 0 0 .5-.5V3.813a.5.5 0 0 0-.5-.5H3.813a.5.5 0 0 0-.5.5v10.375a.5.5 0 0 0 .5.5z" />
    <path
        d="M12.375 4.438a.5.5 0 0 1-.5-.5v-2.25a.5.5 0 0 1 .5-.5.5.5 0 0 1 .5.5v2.25a.5.5 0 0 1-.5.5zM5.625 4.438a.5.5 0 0 1-.5-.5v-2.25a.5.5 0 0 1 .5-.5.5.5 0 0 1 .5.5v2.25a.5.5 0 0 1-.5.5zM15.188 6.688H2.813a.5.5 0 0 1-.5-.5.5.5 0 0 1 .5-.5h12.375a.5.5 0 0 1 .5.5.5.5 0 0 1-.5.5zM8.248 12.594a.5.5 0 0 1-.344-.137L6.125 10.77a.5.5 0 0 1 .688-.726l1.436 1.362 2.94-2.77a.5.5 0 1 1 .686.728l-3.284 3.094a.5.5 0 0 1-.343.136z" />
</svg>