<svg xmlns="http://www.w3.org/2000/svg" width="18" height="18" fill="currentColor">
    <path d="M14.063 16.25H3.937a1.064 1.064 0 0 1-1.062-1.062V2.812A1.064 1.064 0 0 1 3.937 1.75h6.75a.5.5 0 0 1 .354.146l3.934 3.938a.5.5 0 0 1 .146.354v9a1.064 1.064 0 0 1-1.058 1.062zM3.937 2.75a.063.063 0 0 0-.062.063v12.375a.063.063 0 0 0 .063.063h10.125a.063.063 0 0 0 .063-.062V6.395L10.48 2.75z" />
    <path d="M14.625 6.688h-3.938a.5.5 0 0 1-.5-.5V2.25a.5.5 0 1 1 1 0v3.438h3.438a.5.5 0 0 1 0 1zM11.25 10.063h-4.5a.5.5 0 0 1-.5-.5.5.5 0 0 1 .5-.5h4.5a.5.5 0 0 1 .5.5.5.5 0 0 1-.5.5zM11.25 12.313h-4.5a.5.5 0 0 1-.5-.5.5.5 0 0 1 .5-.5h4.5a.5.5 0 0 1 .5.5.5.5 0 0 1-.5.5z" />
</svg>