<svg id="hamburger" xmlns="http://www.w3.org/2000/svg" width="18" height="18" fill="currentColor" stroke="currentColor">
    <path d="M15.188 9.75H2.813a.75.75 0 0 1-.75-.75.75.75 0 0 1 .75-.75h12.375a.75.75 0 0 1 .75.75.75.75 0 0 1-.75.75z" />
    <path d="M15.188 5.25H2.813a.75.75 0 0 1-.75-.75.75.75 0 0 1 .75-.75h12.375a.75.75 0 0 1 .75.75.75.75 0 0 1-.75.75z" />
    <path d="M15.188 14.25H2.813a.75.75 0 0 1-.75-.75.75.75 0 0 1 .75-.75h12.375a.75.75 0 0 1 .75.75.75.75 0 0 1-.75.75z" />
</svg>