<svg id="new-application" data-name="new application" xmlns="http://www.w3.org/2000/svg" width="18" height="18"
     fill="currentColor">
    <path d="M14.063 16.25H3.938a1.064 1.064 0 0 1-1.063-1.062V2.813A1.064 1.064 0 0 1 3.938 1.75h6.75a.5.5 0 0 1 .354.146l3.933 3.938a.5.5 0 0 1 .146.354v9a1.064 1.064 0 0 1-1.058 1.062zM3.938 2.75a.063.063 0 0 0-.062.063v12.375a.063.063 0 0 0 .063.063h10.124a.063.063 0 0 0 .063-.062V6.395L10.48 2.75z"/>
    <path d="M14.625 6.688h-3.938a.5.5 0 0 1-.5-.5V2.25a.5.5 0 0 1 1 0v3.438h3.438a.5.5 0 0 1 0 1zM10.688 11.188H7.313a.5.5 0 0 1-.5-.5.5.5 0 0 1 .5-.5h3.375a.5.5 0 0 1 .5.5.5.5 0 0 1-.5.5z"/>
    <path d="M9 12.875a.5.5 0 0 1-.5-.5V9a.5.5 0 0 1 .5-.5.5.5 0 0 1 .5.5v3.375a.5.5 0 0 1-.5.5z"/>
</svg>