<svg id="new-referral" data-name="new referral" xmlns="http://www.w3.org/2000/svg" width="18" height="18"
     fill="currentColor">
    <path d="M14.943 2.002a1.056 1.056 0 0 1 1.014 1.352l-3.69 13.1a1.064 1.064 0 0 1-.939.775h-.085a1.065 1.065 0 0 1-.965-.619l-2.846-6.016a.052.052 0 0 0-.025-.027L1.385 7.72a1.062 1.062 0 0 1 .164-1.99l13.1-3.69a1.046 1.046 0 0 1 .294-.038zm-3.7 14.232h.005a.063.063 0 0 0 .055-.046l3.692-13.11a.058.058 0 0 0-.013-.06.055.055 0 0 0-.039-.016h-.016L1.816 6.697a.064.064 0 0 0-.05.056.063.063 0 0 0 .036.062h.007l6.019 2.848a1.047 1.047 0 0 1 .507.509l2.846 6.015v.007a.062.062 0 0 0 .061.04z"/>
    <path d="M7.798 10.702a.5.5 0 0 1-.354-.146.5.5 0 0 1 0-.707l3.179-3.179a.5.5 0 0 1 .707 0 .5.5 0 0 1 0 .707l-3.178 3.179a.5.5 0 0 1-.354.146z"/>
</svg>