<svg xmlns="http://www.w3.org/2000/svg" width="18" height="18" fill="currentColor">
    <path d="M3.375 2.313h8.207a1.049 1.049 0 0 1 .744.307l3.052 3.052a1.049 1.049 0 0 1 .308.749v8.2a1.064 1.064 0 0 1-1.062 1.063H3.375a1.064 1.064 0 0 1-1.063-1.059V3.375a1.064 1.064 0 0 1 1.063-1.062zm11.25 12.375a.063.063 0 0 0 .063-.062V6.42a.056.056 0 0 0-.016-.041l-3.051-3.051a.054.054 0 0 0-.038-.015H3.375a.063.063 0 0 0-.062.063v11.25a.063.063 0 0 0 .063.063z" />
    <path d="M12.375 15.688a.5.5 0 0 1-.5-.5v-4.5a.063.063 0 0 0-.062-.062H6.188a.063.063 0 0 0-.062.063v4.5a.5.5 0 0 1-1 0v-4.5a1.064 1.064 0 0 1 1.063-1.062h5.625a1.064 1.064 0 0 1 1.063 1.063v4.5a.5.5 0 0 1-.502.498zM10.688 5.563H6.75a.5.5 0 0 1-.5-.5.5.5 0 0 1 .5-.5h3.938a.5.5 0 0 1 .5.5.5.5 0 0 1-.5.5z" />
</svg>