<svg xmlns="http://www.w3.org/2000/svg" width="18" height="18" fill="currentColor">
    <path d="M15.764 7.51h-3.375a.5.5 0 0 1 0-1h2.875V3.635a.5.5 0 0 1 1 0V7.01a.5.5 0 0 1-.5.5z" />
    <path d="M15.765 7.51a.5.5 0 0 1-.353-.146L13.021 4.98a5.68 5.68 0 0 0-8.04 0 .5.5 0 1 1-.708-.707 6.68 6.68 0 0 1 9.454 0l2.39 2.383a.5.5 0 0 1-.353.854zM2.236 14.865a.5.5 0 0 1-.5-.5V10.99a.5.5 0 0 1 .5-.5h3.375a.5.5 0 0 1 0 1H2.736v2.875a.5.5 0 0 1-.5.5z" />
    <path d="M9 15.69a6.636 6.636 0 0 1-4.727-1.96l-2.39-2.383a.5.5 0 1 1 .706-.708l2.391 2.384a5.68 5.68 0 0 0 8.04 0 .5.5 0 1 1 .708.707A6.636 6.636 0 0 1 9 15.69z" />
</svg>