<svg xmlns="http://www.w3.org/2000/svg" width="18" height="18" fill="currentColor">
    <path d="M11.953 4.578a.5.5 0 0 1-.354-.146l-2.6-2.6-2.6 2.6a.5.5 0 0 1-.707-.707L8.647.771a.5.5 0 0 1 .707 0l2.953 2.954a.5.5 0 0 1-.354.854z" />
    <path d="M9 9.5a.5.5 0 0 1-.5-.5V1.125a.5.5 0 0 1 .5-.5.5.5 0 0 1 .5.5V9a.5.5 0 0 1-.5.5z" />
    <path d="M14.063 15.688H3.938a1.064 1.064 0 0 1-1.062-1.062V7.313A1.064 1.064 0 0 1 3.938 6.25h1.687a.5.5 0 0 1 0 1H3.938a.063.063 0 0 0-.062.063v7.313a.063.063 0 0 0 .063.063h10.124a.063.063 0 0 0 .063-.062V7.313a.063.063 0 0 0-.062-.062h-1.689a.5.5 0 0 1 0-1h1.688a1.064 1.064 0 0 1 1.063 1.063v7.313a1.064 1.064 0 0 1-1.063 1.061z" />
</svg>