<svg xmlns="http://www.w3.org/2000/svg" width="18" height="18" fill="currentColor">
    <path d="M11.468 12.429a.747.747 0 0 1-.519-.209 2.808 2.808 0 0 0-3.9 0 .75.75 0 0 1-1.038-1.082 4.3 4.3 0 0 1 5.974 0 .75.75 0 0 1-.519 1.291z" />
    <path d="M13.848 10.039a.747.747 0 0 1-.524-.213 6.161 6.161 0 0 0-8.656 0A.75.75 0 0 1 3.62 8.752a7.7 7.7 0 0 1 10.751 0 .75.75 0 0 1-.524 1.287z" />
    <path d="M16.235 7.655a.747.747 0 0 1-.526-.216 9.6 9.6 0 0 0-13.417 0 .75.75 0 1 1-1.053-1.068 11.058 11.058 0 0 1 15.523 0 .75.75 0 0 1-.526 1.284z" />
    <circle cx=".844" cy=".844" r=".844" transform="translate(8.156 13.219)" />
</svg>