<svg xmlns="http://www.w3.org/2000/svg" width="24" height="24" fill="currentColor">
    <path d="M19.5 20h-15a2 2 0 0 1-2-2V7.5a2 2 0 0 1 2-2h2.732l1.352-2.027A.5.5 0 0 1 9 3.25h6a.5.5 0 0 1 .416.223L16.768 5.5H19.5a2 2 0 0 1 2 2V18a2 2 0 0 1-2 2zM4.5 6.5a1 1 0 0 0-1 1V18a1 1 0 0 0 1 1h15a1 1 0 0 0 1-1V7.5a1 1 0 0 0-1-1h-3a.5.5 0 0 1-.416-.223L14.732 4.25H9.268L7.916 6.277A.5.5 0 0 1 7.5 6.5z"/>
    <path d="M12 8.5a3.875 3.875 0 1 1-3.875 3.875A3.879 3.879 0 0 1 12 8.5zm0 6.75a2.875 2.875 0 1 0-2.875-2.875A2.878 2.878 0 0 0 12 15.25z"/>
</svg>