<svg xmlns="http://www.w3.org/2000/svg" width="24" height="24" fill="currentColor">
    <path d="M15.75 22H5.25a1.752 1.752 0 0 1-1.75-1.75V6.75A1.752 1.752 0 0 1 5.25 5h7.5a1 1 0 0 1 .707.293l3.75 3.75a1 1 0 0 1 .293.707v10.5A1.752 1.752 0 0 1 15.75 22zM5.5 20h10v-9.836L12.336 7H5.5z"/>
    <path d="M18.75 19H16.5a1 1 0 0 1 0-2h2V7.164L15.336 4H8.5v2a1 1 0 0 1-2 0V3.75A1.752 1.752 0 0 1 8.25 2h7.5a1 1 0 0 1 .707.293l3.75 3.75a1 1 0 0 1 .293.707v10.5A1.752 1.752 0 0 1 18.75 19z"/>
    <path d="M12.75 15.25h-4.5a1 1 0 0 1-1-1 1 1 0 0 1 1-1h4.5a1 1 0 0 1 1 1 1 1 0 0 1-1 1zM12.75 18.25h-4.5a1 1 0 0 1-1-1 1 1 0 0 1 1-1h4.5a1 1 0 0 1 1 1 1 1 0 0 1-1 1z"/>
</svg>