<svg xmlns="http://www.w3.org/2000/svg" width="24" height="24" fill="currentColor">
    <path d="M16.5 11h-6a.5.5 0 0 1-.5-.5.5.5 0 0 1 .5-.5h6a.5.5 0 0 1 .5.5.5.5 0 0 1-.5.5zM16.5 14h-6a.5.5 0 0 1-.5-.5.5.5 0 0 1 .5-.5h6a.5.5 0 0 1 .5.5.5.5 0 0 1-.5.5z"/>
    <path d="M5.75 3.25h12.5a2.5 2.5 0 0 1 2.5 2.5v12.5a2.5 2.5 0 0 1-2.5 2.5H5.75a2.5 2.5 0 0 1-2.5-2.5V5.75a2.5 2.5 0 0 1 2.5-2.5zm12.5 16.5a1.5 1.5 0 0 0 1.5-1.5V5.75a1.5 1.5 0 0 0-1.5-1.5H5.75a1.5 1.5 0 0 0-1.5 1.5v12.5a1.5 1.5 0 0 0 1.5 1.5z"/>
    <path d="M7.5 20.75a.5.5 0 0 1-.5-.5V3.75a.5.5 0 0 1 .5-.5.5.5 0 0 1 .5.5v16.5a.5.5 0 0 1-.5.5z"/>
</svg>