<svg id="online" xmlns="http://www.w3.org/2000/svg" width="24" height="24" fill="currentColor">
    <path d="M15.29 16.322a.747.747 0 0 1-.519-.209 3.993 3.993 0 0 0-5.543 0 .75.75 0 0 1-1.038-1.082 5.5 5.5 0 0 1 7.62 0 .75.75 0 0 1-.519 1.291z"/>
    <path d="M18.468 13.137a.747.747 0 0 1-.524-.213 8.463 8.463 0 0 0-11.89 0 .75.75 0 1 1-1.048-1.074 10.012 10.012 0 0 1 13.985 0 .75.75 0 0 1-.524 1.287z"/>
    <path d="M21.647 9.957a.748.748 0 0 1-.526-.216 13.048 13.048 0 0 0-18.241 0 .75.75 0 1 1-1.053-1.068 14.494 14.494 0 0 1 20.347 0 .75.75 0 0 1-.526 1.284z"/>
    <circle cx="1.125" cy="1.125" r="1.125" transform="translate(10.875 17.625)"/>
</svg>