<svg xmlns="http://www.w3.org/2000/svg" width="24" height="24" fill="currentColor">
    <path d="M12 2.5A9.5 9.5 0 1 1 2.5 12 9.511 9.511 0 0 1 12 2.5zm0 18A8.5 8.5 0 1 0 3.5 12a8.51 8.51 0 0 0 8.5 8.5z"/>
    <path d="M16.5 20.3a.5.5 0 0 1-.5-.5v-3.19l-4-8.667-4 8.667v3.19a.5.5 0 0 1-1 0v-3.3a.5.5 0 0 1 .046-.21l4.5-9.75a.5.5 0 0 1 .908 0l4.5 9.75a.5.5 0 0 1 .046.21v3.3a.5.5 0 0 1-.5.5z"/>
    <path d="M16.5 18.5a.5.5 0 0 1-.5-.5 1.75 1.75 0 0 0-3.5 0 .5.5 0 0 1-1 0 2.75 2.75 0 0 1 5.5 0 .5.5 0 0 1-.5.5z"/>
    <path d="M12 21.5a.5.5 0 0 1-.5-.5v-3A1.75 1.75 0 0 0 8 18a.5.5 0 0 1-1 0 2.75 2.75 0 0 1 5.5 0v3a.5.5 0 0 1-.5.5zM14.419 12.5H9.581a.5.5 0 0 1-.5-.5.5.5 0 0 1 .5-.5h4.838a.5.5 0 0 1 .5.5.5.5 0 0 1-.5.5z"/>
</svg>