<svg xmlns="http://www.w3.org/2000/svg" width="24" height="24" fill="currentColor">
    <path d="M12 6.5A5.5 5.5 0 1 1 6.5 12 5.506 5.506 0 0 1 12 6.5zm0 9A3.5 3.5 0 1 0 8.5 12a3.5 3.5 0 0 0 3.5 3.5z"/>
    <path d="M9.018 1.709a1 1 0 0 1 .515.143l2.128 1.277a9.58 9.58 0 0 1 .678 0l2.119-1.268a1 1 0 0 1 .815-.1 10.691 10.691 0 0 1 3.954 2.277 1 1 0 0 1 .326.756l-.042 2.473q.184.289.343.594l2.156 1.2a1 1 0 0 1 .49.656 10.634 10.634 0 0 1 .01 4.556 1 1 0 0 1-.492.661l-2.165 1.2q-.158.3-.343.593l.042 2.473a1 1 0 0 1-.326.756 10.678 10.678 0 0 1-3.938 2.284 1 1 0 0 1-.822-.094l-2.128-1.277a9.58 9.58 0 0 1-.678 0l-2.119 1.27a1 1 0 0 1-.815.1 10.692 10.692 0 0 1-3.954-2.277 1 1 0 0 1-.326-.756l.042-2.468a8.448 8.448 0 0 1-.343-.6l-2.157-1.2a1 1 0 0 1-.49-.656 10.634 10.634 0 0 1-.01-4.556 1 1 0 0 1 .492-.661l2.165-1.2q.158-.3.343-.593l-.042-2.473a1 1 0 0 1 .326-.756A10.678 10.678 0 0 1 8.71 1.759a1 1 0 0 1 .308-.05zm2.391 3.434A1 1 0 0 1 10.895 5L8.906 3.809a8.667 8.667 0 0 0-2.452 1.423l.039 2.318a1 1 0 0 1-.18.589 5.918 5.918 0 0 0-.505.874 1 1 0 0 1-.421.45l-2.028 1.123a8.645 8.645 0 0 0 .007 2.823l2.022 1.124a1 1 0 0 1 .418.447 6.53 6.53 0 0 0 .512.894 1 1 0 0 1 .174.581l-.039 2.308a8.7 8.7 0 0 0 2.459 1.416l1.984-1.181a1 1 0 0 1 .585-.139 7.311 7.311 0 0 0 1.039 0 1 1 0 0 1 .586.14l1.99 1.193a8.667 8.667 0 0 0 2.452-1.423l-.039-2.318a1 1 0 0 1 .18-.589 5.916 5.916 0 0 0 .505-.874 1 1 0 0 1 .421-.45l2.028-1.123a8.645 8.645 0 0 0-.007-2.829l-2.022-1.124a1 1 0 0 1-.418-.453 5.918 5.918 0 0 0-.505-.874 1 1 0 0 1-.18-.589l.039-2.317a8.7 8.7 0 0 0-2.459-1.416l-1.982 1.186a1 1 0 0 1-.585.139 7.312 7.312 0 0 0-1.039 0z"/>
</svg>