<svg xmlns="http://www.w3.org/2000/svg" width="24" height="24" fill="currentColor">
    <path d="M8.25 4.25a5.875 5.875 0 1 1-5.875 5.875A5.882 5.882 0 0 1 8.25 4.25zm0 9.75a3.875 3.875 0 1 0-3.875-3.875A3.879 3.879 0 0 0 8.25 14z"/>
    <path d="M15.891 16a1 1 0 0 1 0-2 3.875 3.875 0 0 0 0-7.75 4.105 4.105 0 0 0-1.06.143 1 1 0 0 1-.524-1.93 6.112 6.112 0 0 1 1.581-.213 5.875 5.875 0 1 1 0 11.75zM1.5 19.503a1 1 0 0 1-.817-1.575 9.25 9.25 0 0 1 15.136 0 1 1 0 1 1-1.636 1.15 7.25 7.25 0 0 0-11.864 0 1 1 0 0 1-.819.425z"/>
    <path d="M22.642 19.506a1 1 0 0 1-.819-.426A7.247 7.247 0 0 0 15.896 16h-.005a1 1 0 0 1 0-2h.006a9.249 9.249 0 0 1 7.563 3.932 1 1 0 0 1-.818 1.575z"/>
</svg>